<svg width="52" height="52" viewBox="0 0 52 52" fill="none" xmlns="http://www.w3.org/2000/svg">
<ellipse cx="25.6739" cy="25.6739" rx="25.6739" ry="25.6739" fill="#FF3131"/>
<path d="M13.2484 39.609L12.8007 39.1614L12.8006 39.1615L12.3197 38.6805L38.1993 39.1614L25.9496 26.9144L25.9495 26.9143L25.5001 26.4649L25.5 26.465L25.4999 26.4649L25.0505 26.9143L25.0504 26.9144L12.8007 39.1614L13.2484 39.609ZM13.2484 39.609L13.2529 39.6135L13.2484 39.609ZM39.1614 12.8007L26.9144 25.0504L26.9143 25.0505L26.4649 25.4999L26.465 25.5L26.4649 25.5001L38.6804 12.3196L38.6805 12.3196L38.6805 12.3197L38.6807 12.3198L39.1615 12.8006L39.1614 12.8007L39.609 13.2484L39.1614 12.8007ZM39.1614 12.8007C39.0982 12.8639 39.0232 12.914 38.9406 12.9482C38.8581 12.9824 38.7696 13 38.6803 13C38.591 13 38.5025 12.9824 38.42 12.9482C38.3374 12.914 38.2624 12.8639 38.1993 12.8007C38.1361 12.7376 38.086 12.6626 38.0518 12.58C38.0176 12.4975 38 12.409 38 12.3197C38 12.2304 38.0176 12.1419 38.0518 12.0594C38.086 11.9768 38.1361 11.9018 38.1993 11.8386L38.6803 12.3197L39.1614 12.8007ZM38.6802 12.3193L38.6762 12.3154L38.6802 12.3193ZM12.3196 12.3196L12.3195 12.3197L12.3196 12.3196ZM12.3196 12.3196L12.3196 12.3196L12.3196 12.3196Z" fill="white" stroke="white" stroke-width="4"/>
</svg>
