<svg width="41" height="41" viewBox="0 0 41 41" fill="none" xmlns="http://www.w3.org/2000/svg">
<g clip-path="url(#clip0_99_1742)">
<path d="M28.8288 16.2986C28.8449 16.1414 28.7215 16.0048 28.5635 16.0048H23.465V12.4671C23.465 11.1386 24.3455 10.8288 24.9657 10.8288C25.4755 10.8288 27.729 10.8288 28.507 10.8288C28.6542 10.8288 28.7721 10.7094 28.7721 10.5621V5.25386C28.7721 5.10699 28.6534 4.98777 28.5065 4.9872L23.5299 4.96777C17.7105 4.96777 16.3861 9.32387 16.3861 12.1115V16.0048H13.2873C13.14 16.0048 13.0206 16.1242 13.0206 16.2714V21.7565C13.0206 21.9038 13.14 22.0231 13.2873 22.0231H16.3861C16.3861 28.9819 16.3861 37.2251 16.3861 38.7898C16.3861 38.9371 16.5055 39.0531 16.6528 39.0531H23.1983C23.3456 39.0531 23.465 38.9369 23.465 38.7896C23.465 37.2166 23.465 28.9025 23.465 22.0231H28.0009C28.1376 22.0231 28.2522 21.9197 28.2661 21.7837L28.8288 16.2986Z" stroke="white" stroke-width="2.66667"/>
</g>
<defs>
<clipPath id="clip0_99_1742">
<rect width="40" height="40" fill="white" transform="translate(0.333374 0.666016)"/>
</clipPath>
</defs>
</svg>
