<svg width="44" height="43" viewBox="0 0 44 43" fill="none" xmlns="http://www.w3.org/2000/svg">
<path d="M21.9959 3.45996C17.0519 3.45996 16.4319 3.48092 14.4902 3.56951C12.5526 3.65796 11.2293 3.96565 10.0713 4.4157C8.87415 4.88093 7.85894 5.5034 6.8469 6.51543C5.83487 7.52747 5.2124 8.54268 4.74717 9.73978C4.29712 10.8977 3.98943 12.2211 3.90098 14.1587C3.81239 16.1004 3.7915 16.7203 3.7915 21.6644C3.7915 26.6084 3.81239 27.2283 3.90098 29.17C3.98943 31.1076 4.29712 32.431 4.74717 33.5889C5.2124 34.786 5.83487 35.8012 6.8469 36.8133C7.85894 37.8254 8.87415 38.4478 10.0713 38.9131C11.2293 39.363 12.5526 39.6708 14.4902 39.7592C16.4319 39.8478 17.0519 39.8687 21.9959 39.8687C26.9399 39.8687 27.5598 39.8478 29.5015 39.7592C31.4392 39.6708 32.7625 39.363 33.9204 38.9131C35.1175 38.4478 36.1328 37.8254 37.1449 36.8133C38.1569 35.8012 38.7794 34.786 39.2446 33.5889C39.6946 32.431 40.0023 31.1076 40.0907 29.17C40.1793 27.2283 40.2003 26.6084 40.2003 21.6644C40.2003 16.7203 40.1793 16.1004 40.0907 14.1587C40.0023 12.2211 39.6946 10.8977 39.2446 9.73978C38.7794 8.54268 38.1569 7.52747 37.1449 6.51543C36.1328 5.5034 35.1175 4.88093 33.9204 4.4157C32.7625 3.96565 31.4392 3.65796 29.5015 3.56951C27.5598 3.48092 26.9399 3.45996 21.9959 3.45996ZM21.9959 6.7401C26.8567 6.7401 27.4324 6.7586 29.352 6.84618C31.1269 6.92718 32.0908 7.22375 32.7323 7.47298C33.582 7.80322 34.1885 8.19777 34.8255 8.83477C35.4625 9.47176 35.857 10.0783 36.1872 10.9279C36.4366 11.5694 36.7331 12.5333 36.814 14.3082C36.9016 16.2278 36.9202 16.8036 36.9202 21.6644C36.9202 26.5251 36.9016 27.1009 36.814 29.0205C36.7331 30.7954 36.4366 31.7593 36.1872 32.4008C35.857 33.2505 35.4625 33.8569 34.8255 34.4939C34.1885 35.131 33.582 35.5255 32.7323 35.8557C32.0908 36.105 31.1269 36.4016 29.352 36.4825C27.4327 36.5701 26.857 36.5887 21.9959 36.5887C17.1348 36.5887 16.5591 36.5701 14.6398 36.4825C12.8648 36.4016 11.9009 36.105 11.2595 35.8557C10.4097 35.5255 9.8033 35.131 9.16624 34.4939C8.52924 33.8569 8.13469 33.2505 7.80452 32.4008C7.55522 31.7593 7.25865 30.7954 7.17765 29.0205C7.09007 27.1009 7.07157 26.5251 7.07157 21.6644C7.07157 16.8036 7.09007 16.2278 7.17765 14.3082C7.25865 12.5333 7.55522 11.5694 7.80452 10.9279C8.13469 10.0783 8.52924 9.47176 9.16624 8.83477C9.8033 8.19777 10.4097 7.80322 11.2595 7.47298C11.9009 7.22375 12.8648 6.92718 14.6398 6.84618C16.5593 6.7586 17.1351 6.7401 21.9959 6.7401Z" fill="#E59B06"/>
<path d="M21.9939 27.7327C18.6425 27.7327 15.9257 25.0159 15.9257 21.6646C15.9257 18.3132 18.6425 15.5965 21.9939 15.5965C25.3452 15.5965 28.0619 18.3132 28.0619 21.6646C28.0619 25.0159 25.3452 27.7327 21.9939 27.7327ZM21.9939 12.3164C16.8309 12.3164 12.6456 16.5017 12.6456 21.6646C12.6456 26.8275 16.8309 31.0128 21.9939 31.0128C27.1567 31.0128 31.342 26.8275 31.342 21.6646C31.342 16.5017 27.1567 12.3164 21.9939 12.3164Z" fill="#E59B06"/>
<path d="M33.9001 11.9472C33.9001 13.1537 32.922 14.1317 31.7155 14.1317C30.5091 14.1317 29.531 13.1537 29.531 11.9472C29.531 10.7407 30.5091 9.7627 31.7155 9.7627C32.922 9.7627 33.9001 10.7407 33.9001 11.9472Z" fill="#E59B06"/>
</svg>
