<svg width="41" height="41" viewBox="0 0 41 41" fill="none" xmlns="http://www.w3.org/2000/svg">
<g clip-path="url(#clip0_89_3032)">
<path d="M28.8288 16.3006C28.8449 16.1434 28.7215 16.0067 28.5635 16.0067H23.465V12.4691C23.465 11.1405 24.3455 10.8308 24.9657 10.8308C25.4755 10.8308 27.729 10.8308 28.507 10.8308C28.6542 10.8308 28.7721 10.7114 28.7721 10.5641V5.25582C28.7721 5.10895 28.6534 4.98972 28.5065 4.98915L23.5299 4.96973C17.7105 4.96973 16.3861 9.32582 16.3861 12.1135V16.0067H13.2873C13.14 16.0067 13.0206 16.1261 13.0206 16.2734V21.7584C13.0206 21.9057 13.14 22.0251 13.2873 22.0251H16.3861C16.3861 28.9838 16.3861 37.2271 16.3861 38.7918C16.3861 38.939 16.5055 39.0551 16.6528 39.0551H23.1983C23.3456 39.0551 23.465 38.9388 23.465 38.7916C23.465 37.2186 23.465 28.9044 23.465 22.0251H28.0009C28.1376 22.0251 28.2522 21.9217 28.2661 21.7856L28.8288 16.3006Z" stroke="#17C1BC" stroke-width="2.66667"/>
</g>
<defs>
<clipPath id="clip0_89_3032">
<rect width="40" height="40" fill="white" transform="translate(0.333374 0.666992)"/>
</clipPath>
</defs>
</svg>
