<svg width="51" height="51" viewBox="0 0 51 51" fill="none" xmlns="http://www.w3.org/2000/svg">
<path d="M45.7425 35.1657C43.8687 32.2159 41.6757 29.4814 39.2034 27.0116C39.1584 26.9554 39.1339 26.8856 39.1339 26.8137C39.1339 26.7417 39.1584 26.6719 39.2034 26.6157C41.3309 23.7119 43.2111 20.6347 44.8242 17.4166C45.0575 16.9561 45.1685 16.4433 45.1463 15.9275C45.1241 15.4117 44.9695 14.9103 44.6975 14.4716C44.4494 14.0256 44.0867 13.654 43.6469 13.3951C43.2071 13.1363 42.7062 12.9995 42.1958 12.9991H37.4458C36.8431 13.0108 36.2562 13.1943 35.7541 13.528C35.2521 13.8618 34.8557 14.332 34.6117 14.8832C33.232 17.9346 31.5786 20.8546 29.6717 23.6074V15.8491C29.6738 15.4742 29.6015 15.1027 29.459 14.7559C29.3165 14.4092 29.1067 14.0942 28.8416 13.8291C28.5766 13.5641 28.2615 13.3542 27.9148 13.2117C27.5681 13.0693 27.1965 12.997 26.8217 12.9991H19.8867C19.483 13.0053 19.0886 13.1218 18.7462 13.3358C18.4038 13.5498 18.1264 13.8533 17.9439 14.2134C17.7614 14.5736 17.6807 14.9768 17.7105 15.3794C17.7404 15.7821 17.8797 16.1689 18.1133 16.4982L18.7467 17.3849C19.0864 17.8728 19.2687 18.4529 19.2692 19.0474V25.1274C17.1791 22.0354 15.5173 18.6746 14.3292 15.1366C14.1149 14.5131 13.7114 13.9721 13.175 13.5889C12.6386 13.2057 11.9959 12.9995 11.3367 12.9991H7.45752C7.04535 13.004 6.63961 13.1019 6.27053 13.2854C5.90146 13.469 5.57856 13.7335 5.32592 14.0592C5.07328 14.3849 4.8974 14.7634 4.81139 15.1665C4.72538 15.5696 4.73146 15.987 4.82918 16.3874C6.96668 25.4599 11.4475 32.9807 17.1317 36.9707C17.4723 37.2127 17.8949 37.3103 18.3071 37.242C18.7194 37.1738 19.088 36.9454 19.3325 36.6066C19.4548 36.4373 19.5424 36.2456 19.5903 36.0424C19.6382 35.8392 19.6455 35.6285 19.6116 35.4225C19.5778 35.2164 19.5035 35.0191 19.3931 34.8419C19.2827 34.6647 19.1384 34.5111 18.9683 34.3899C13.9967 30.9066 10.0383 24.2724 8.02752 16.1657H11.3525C12.8096 20.5926 15.0044 24.7413 17.8442 28.4366C18.1724 28.8559 18.6244 29.1612 19.1361 29.309C19.6477 29.4568 20.1929 29.4396 20.6942 29.2599C21.2085 29.0806 21.6535 28.7441 21.966 28.298C22.2786 27.8518 22.443 27.3187 22.4359 26.7741V19.0474C22.4392 18.0409 22.1887 17.0498 21.7075 16.1657H26.4575V24.7632C26.4518 25.3784 26.6488 25.9784 27.0179 26.4706C27.387 26.9627 27.9079 27.3198 28.5 27.4866C29.0745 27.6778 29.6961 27.6744 30.2685 27.4769C30.8409 27.2794 31.3323 26.8989 31.6667 26.3941C33.9156 23.1856 35.8359 19.7589 37.3983 16.1657H41.8317C40.3225 19.133 38.5807 21.9761 36.6225 24.6682C36.1287 25.3288 35.889 26.1449 35.9472 26.9676C36.0053 27.7902 36.3574 28.5645 36.9392 29.1491C39.2485 31.4762 41.3271 34.0214 43.1458 36.7491H37.8417C36.2054 34.0404 34.0081 31.7136 31.3975 29.9249C31.0058 29.6379 30.5416 29.4665 30.0574 29.4301C29.5732 29.3937 29.0885 29.4938 28.6583 29.7191C28.216 29.9454 27.8455 30.2905 27.5882 30.7155C27.331 31.1406 27.1971 31.6289 27.2017 32.1257V35.8941C27.2103 36.114 27.1322 36.3286 26.9841 36.4915C26.836 36.6544 26.6298 36.7526 26.41 36.7649H25.0483C24.6284 36.7649 24.2257 36.9317 23.9288 37.2286C23.6318 37.5256 23.465 37.9283 23.465 38.3482C23.465 38.7682 23.6318 39.1709 23.9288 39.4678C24.2257 39.7648 24.6284 39.9316 25.0483 39.9316H26.41C26.9353 39.9274 27.4547 39.8196 27.9382 39.6143C28.4218 39.4089 28.86 39.1101 29.2278 38.735C29.5956 38.3598 29.8856 37.9158 30.0814 37.4283C30.2771 36.9407 30.3746 36.4194 30.3683 35.8941V33.0916C32.273 34.5242 33.8854 36.3086 35.1183 38.3482C35.3906 38.82 35.7798 39.2136 36.2486 39.4909C36.7173 39.7683 37.2497 39.92 37.7942 39.9316H43.1458C43.6931 39.9329 44.2305 39.7865 44.7015 39.5079C45.1725 39.2292 45.5595 38.8286 45.8217 38.3482C46.0906 37.858 46.225 37.3053 46.2111 36.7463C46.1972 36.1873 46.0355 35.642 45.7425 35.1657Z" fill="#BC0000"/>
</svg>
