<svg width="32" height="32" viewBox="0 0 32 32" fill="none" xmlns="http://www.w3.org/2000/svg">
<path d="M27.1033 6.13648C26.4476 5.48052 25.6692 4.96016 24.8123 4.60514C23.9555 4.25011 23.0372 4.06738 22.1097 4.06738C21.1823 4.06738 20.2639 4.25011 19.4071 4.60514C18.5503 4.96016 17.7718 5.48052 17.1161 6.13648L15.7554 7.4972L14.3947 6.13648C13.0703 4.8121 11.2741 4.06807 9.4011 4.06807C7.52815 4.06807 5.7319 4.8121 4.40752 6.13648C3.08314 7.46086 2.33911 9.2571 2.33911 11.1301C2.33911 13.003 3.08314 14.7993 4.40752 16.1236L5.76824 17.4844L15.7554 27.4715L25.7426 17.4844L27.1033 16.1236C27.7592 15.468 28.2796 14.6895 28.6346 13.8327C28.9896 12.9759 29.1724 12.0575 29.1724 11.1301C29.1724 10.2026 28.9896 9.28424 28.6346 8.42742C28.2796 7.57061 27.7592 6.79213 27.1033 6.13648V6.13648Z" stroke="#D4D4D4" stroke-width="2.5674" stroke-linecap="round" stroke-linejoin="round"/>
</svg>
