<svg width="43" height="43" viewBox="0 0 43 43" fill="none" xmlns="http://www.w3.org/2000/svg">
<path d="M21.3295 3.46191C16.3855 3.46191 15.7656 3.48287 13.8239 3.57146C11.8862 3.65991 10.5629 3.96761 9.40487 4.41766C8.20777 4.88288 7.19256 5.50535 6.18052 6.51739C5.16849 7.52942 4.54602 8.54463 4.08079 9.74173C3.63074 10.8997 3.32305 12.223 3.2346 14.1607C3.14601 16.1023 3.12512 16.7223 3.12512 21.6663C3.12512 26.6103 3.14601 27.2302 3.2346 29.1719C3.32305 31.1096 3.63074 32.4329 4.08079 33.5909C4.54602 34.788 5.16849 35.8032 6.18052 36.8153C7.19256 37.8273 8.20777 38.4498 9.40487 38.915C10.5629 39.365 11.8862 39.6728 13.8239 39.7611C15.7656 39.8497 16.3855 39.8707 21.3295 39.8707C26.2735 39.8707 26.8935 39.8497 28.8351 39.7611C30.7728 39.6728 32.0961 39.365 33.2541 38.915C34.4512 38.4498 35.4664 37.8273 36.4785 36.8153C37.4905 35.8032 38.113 34.788 38.5782 33.5909C39.0282 32.4329 39.336 31.1096 39.4243 29.1719C39.5129 27.2302 39.5339 26.6103 39.5339 21.6663C39.5339 16.7223 39.5129 16.1023 39.4243 14.1607C39.336 12.223 39.0282 10.8997 38.5782 9.74173C38.113 8.54463 37.4905 7.52942 36.4785 6.51739C35.4664 5.50535 34.4512 4.88288 33.2541 4.41766C32.0961 3.96761 30.7728 3.65991 28.8351 3.57146C26.8935 3.48287 26.2735 3.46191 21.3295 3.46191ZM21.3295 6.74205C26.1903 6.74205 26.7661 6.76055 28.6856 6.84813C30.4605 6.92914 31.4245 7.2257 32.0659 7.47493C32.9157 7.80517 33.5221 8.19973 34.1591 8.83672C34.7961 9.47371 35.1906 10.0802 35.5209 10.9299C35.7702 11.5713 36.0667 12.5353 36.1477 14.3102C36.2352 16.2297 36.2538 16.8055 36.2538 21.6663C36.2538 26.5271 36.2352 27.1029 36.1477 29.0224C36.0667 30.7973 35.7702 31.7612 35.5209 32.4027C35.1906 33.2525 34.7961 33.8589 34.1591 34.4959C33.5221 35.1329 32.9157 35.5274 32.0659 35.8577C31.4245 36.107 30.4605 36.4035 28.6856 36.4845C26.7663 36.572 26.1906 36.5906 21.3295 36.5906C16.4684 36.5906 15.8927 36.572 13.9734 36.4845C12.1985 36.4035 11.2346 36.107 10.5931 35.8577C9.74335 35.5274 9.13692 35.1329 8.49986 34.4959C7.86286 33.8589 7.46831 33.2525 7.13814 32.4027C6.88884 31.7612 6.59227 30.7973 6.51127 29.0224C6.42368 27.1029 6.40518 26.5271 6.40518 21.6663C6.40518 16.8055 6.42368 16.2297 6.51127 14.3102C6.59227 12.5353 6.88884 11.5713 7.13814 10.9299C7.46831 10.0802 7.86286 9.47371 8.49986 8.83672C9.13692 8.19973 9.74335 7.80517 10.5931 7.47493C11.2346 7.2257 12.1985 6.92914 13.9734 6.84813C15.8929 6.76055 16.4687 6.74205 21.3295 6.74205Z" fill="white"/>
<path d="M21.3275 27.7347C17.9761 27.7347 15.2593 25.0179 15.2593 21.6666C15.2593 18.3152 17.9761 15.5984 21.3275 15.5984C24.6788 15.5984 27.3956 18.3152 27.3956 21.6666C27.3956 25.0179 24.6788 27.7347 21.3275 27.7347ZM21.3275 12.3184C16.1645 12.3184 11.9792 16.5037 11.9792 21.6666C11.9792 26.8294 16.1645 31.0147 21.3275 31.0147C26.4903 31.0147 30.6756 26.8294 30.6756 21.6666C30.6756 16.5037 26.4903 12.3184 21.3275 12.3184Z" fill="white"/>
<path d="M33.2337 11.9491C33.2337 13.1556 32.2556 14.1336 31.0491 14.1336C29.8427 14.1336 28.8646 13.1556 28.8646 11.9491C28.8646 10.7426 29.8427 9.76465 31.0491 9.76465C32.2556 9.76465 33.2337 10.7426 33.2337 11.9491Z" fill="white"/>
</svg>
