<svg width="26" height="26" viewBox="0 0 26 26" fill="none" xmlns="http://www.w3.org/2000/svg">
<g clip-path="url(#clip0_99_1730)">
<path d="M23.1027 6.3005C23.0561 6.23797 22.9976 6.18525 22.9306 6.14533C22.8635 6.10542 22.7893 6.07911 22.7121 6.0679C22.6349 6.05669 22.5563 6.0608 22.4807 6.07999C22.4051 6.09919 22.334 6.13309 22.2715 6.17977L12.6943 13.3285C12.66 13.3542 12.6184 13.3681 12.5755 13.3681C12.5327 13.3681 12.4911 13.3542 12.4568 13.3285L3.06763 6.14811C3.00564 6.1008 2.93494 6.06617 2.85957 6.04619C2.7842 6.02621 2.70563 6.02127 2.62835 6.03166C2.55107 6.04204 2.47659 6.06754 2.40916 6.10671C2.34174 6.14588 2.28269 6.19794 2.23539 6.25993C2.18808 6.32192 2.15345 6.39262 2.13347 6.46799C2.11349 6.54336 2.10855 6.62193 2.11894 6.69921C2.12932 6.77649 2.15482 6.85097 2.19399 6.91839C2.23316 6.98582 2.28522 7.04487 2.34721 7.09217L9.7295 12.7387L2.42836 18.2408C2.36546 18.2877 2.31242 18.3466 2.27226 18.414C2.2321 18.4814 2.20562 18.5561 2.19431 18.6337C2.18301 18.7114 2.18711 18.7905 2.20639 18.8665C2.22566 18.9426 2.25972 19.0141 2.30664 19.077C2.35355 19.1399 2.41239 19.193 2.4798 19.2331C2.54722 19.2733 2.62188 19.2998 2.69953 19.3111C2.77718 19.3224 2.85629 19.3183 2.93235 19.299C3.00841 19.2797 3.07994 19.2456 3.14283 19.1987L10.7092 13.4869L11.7344 14.2785C11.9734 14.4615 12.2656 14.5616 12.5666 14.5638C12.8677 14.5659 13.1612 14.47 13.4028 14.2904L14.4795 13.4869L22.1349 19.1987C22.1974 19.2454 22.2685 19.2793 22.3441 19.2985C22.4197 19.3176 22.4984 19.3217 22.5755 19.3105C22.6527 19.2993 22.727 19.273 22.794 19.2331C22.861 19.1932 22.9195 19.1405 22.9662 19.078C23.0128 19.0155 23.0467 18.9444 23.0659 18.8688C23.0851 18.7932 23.0892 18.7146 23.078 18.6374C23.0668 18.5602 23.0404 18.486 23.0005 18.4189C22.9607 18.3519 22.9079 18.2934 22.8454 18.2468L15.4711 12.7368L22.982 7.12581C23.1066 7.03174 23.1891 6.89239 23.2117 6.73793C23.2343 6.58346 23.1951 6.42632 23.1027 6.3005V6.3005Z" fill="#282828"/>
<path d="M22.3646 3.76074H2.96875C2.18139 3.76074 1.42628 4.07352 0.869527 4.63027C0.312778 5.18702 0 5.94213 0 6.72949L0 18.6045C0 19.3919 0.312778 20.147 0.869527 20.7037C1.42628 21.2605 2.18139 21.5732 2.96875 21.5732H22.3646C23.1519 21.5732 23.9071 21.2605 24.4638 20.7037C25.0206 20.147 25.3333 19.3919 25.3333 18.6045V6.72949C25.3333 5.94213 25.0206 5.18702 24.4638 4.63027C23.9071 4.07352 23.1519 3.76074 22.3646 3.76074ZM24.1458 18.6045C24.1458 19.0769 23.9582 19.53 23.6241 19.864C23.2901 20.1981 22.837 20.3857 22.3646 20.3857H2.96875C2.49633 20.3857 2.04327 20.1981 1.70922 19.864C1.37517 19.53 1.1875 19.0769 1.1875 18.6045V6.72949C1.1875 6.25708 1.37517 5.80401 1.70922 5.46996C2.04327 5.13591 2.49633 4.94824 2.96875 4.94824H22.3646C22.837 4.94824 23.2901 5.13591 23.6241 5.46996C23.9582 5.80401 24.1458 6.25708 24.1458 6.72949V18.6045Z" fill="#282828" stroke="#282828" stroke-width="0.666667"/>
</g>
<defs>
<clipPath id="clip0_99_1730">
<rect width="25.3333" height="25.3333" fill="white"/>
</clipPath>
</defs>
</svg>
