<svg width="29" height="29" viewBox="0 0 29 29" fill="none" xmlns="http://www.w3.org/2000/svg">
<path d="M18.981 8.99851C22.1837 8.99851 24.7799 8.07128 24.7799 6.92748C24.7799 5.78368 22.1837 4.85645 18.981 4.85645C15.7784 4.85645 13.1821 5.78368 13.1821 6.92748C13.1821 8.07128 15.7784 8.99851 18.981 8.99851Z" stroke="#FF8A6B" stroke-width="0.770218" stroke-miterlimit="10" stroke-linecap="round" stroke-linejoin="round"/>
<path d="M13.1824 7.34229C13.1824 7.72004 13.1824 9.44977 13.1824 9.82752C13.1824 10.9711 15.7778 11.8986 18.9813 11.8986C22.1847 11.8986 24.7801 10.9711 24.7801 9.82752C24.7801 9.44977 24.7801 7.72004 24.7801 7.34229" stroke="#FF8A6B" stroke-width="0.770218" stroke-miterlimit="10" stroke-linecap="round" stroke-linejoin="round"/>
<path d="M16.3091 14.568C17.1085 14.7163 18.0173 14.8004 18.9807 14.8004C22.1842 14.8004 24.7796 13.873 24.7796 12.7294C24.7796 12.3516 24.7796 10.6219 24.7796 10.2441" stroke="#FF8A6B" stroke-width="0.770218" stroke-miterlimit="10" stroke-linecap="round" stroke-linejoin="round"/>
<path d="M13.1821 10.2441C13.1821 10.6219 13.1821 12.0128 13.1821 12.0128" stroke="#FF8A6B" stroke-width="0.770218" stroke-miterlimit="10" stroke-linecap="round" stroke-linejoin="round"/>
<path d="M16.5061 17.5032C17.2566 17.63 18.0954 17.7008 18.981 17.7008C22.1845 17.7008 24.7799 16.7738 24.7799 15.6298C24.7799 15.252 24.7799 13.5223 24.7799 13.1445" stroke="#FF8A6B" stroke-width="0.770218" stroke-miterlimit="10" stroke-linecap="round" stroke-linejoin="round"/>
<path d="M16.4739 20.3933C17.2323 20.5234 18.0827 20.5963 18.9807 20.5963C22.1841 20.5963 24.7795 19.6693 24.7795 18.5253C24.7795 18.1475 24.7795 16.4178 24.7795 16.04" stroke="#FF8A6B" stroke-width="0.770218" stroke-miterlimit="10" stroke-linecap="round" stroke-linejoin="round"/>
<path d="M10.6973 16.0415C13.9 16.0415 16.4962 15.1142 16.4962 13.9704C16.4962 12.8266 13.9 11.8994 10.6973 11.8994C7.49469 11.8994 4.89844 12.8266 4.89844 13.9704C4.89844 15.1142 7.49469 16.0415 10.6973 16.0415Z" stroke="#FF8A6B" stroke-width="0.770218" stroke-miterlimit="10" stroke-linecap="round" stroke-linejoin="round"/>
<path d="M4.89722 14.3818C4.89722 14.7596 4.89722 16.4893 4.89722 16.8671C4.89722 18.0111 7.49263 18.9381 10.6961 18.9381C13.8996 18.9381 16.495 18.0111 16.495 16.8671C16.495 16.4893 16.495 14.7596 16.495 14.3818" stroke="#FF8A6B" stroke-width="0.770218" stroke-miterlimit="10" stroke-linecap="round" stroke-linejoin="round"/>
<path d="M4.89771 17.2852C4.89771 17.6629 4.89771 19.3926 4.89771 19.7704C4.89771 20.9144 7.49312 21.8414 10.6966 21.8414C13.9001 21.8414 16.4955 20.9144 16.4955 19.7704C16.4955 19.3926 16.4955 17.6629 16.4955 17.2852" stroke="#FF8A6B" stroke-width="0.770218" stroke-miterlimit="10" stroke-linecap="round" stroke-linejoin="round"/>
<path d="M4.89795 20.1797C4.89795 20.5574 4.89795 22.2872 4.89795 22.6649C4.89795 23.809 7.49337 24.736 10.6968 24.736C13.9003 24.736 16.4957 23.809 16.4957 22.6649C16.4957 22.2872 16.4957 20.5574 16.4957 20.1797" stroke="#FF8A6B" stroke-width="0.770218" stroke-miterlimit="10" stroke-linecap="round" stroke-linejoin="round"/>
</svg>
