<svg width="23" height="23" viewBox="0 0 23 23" fill="none" xmlns="http://www.w3.org/2000/svg">
<path d="M15.8125 13.4165C14.375 13.4165 13.225 13.7998 12.3625 14.279C13.7042 15.429 14.2792 16.7707 14.375 16.8665L14.4709 17.0582V19.1665H22.1376V17.2498C22.0417 17.2498 20.5084 13.4165 15.8125 13.4165Z" fill="#FF8A6B"/>
<path d="M15.8127 11.4998C17.6651 11.4998 19.1668 9.99813 19.1668 8.14567C19.1668 6.29322 17.6651 4.7915 15.8127 4.7915C13.9602 4.7915 12.4585 6.29322 12.4585 8.14567C12.4585 9.99813 13.9602 11.4998 15.8127 11.4998Z" fill="#FF8A6B"/>
<path d="M3.83325 8.14567C3.83325 6.32484 5.36659 4.7915 7.18742 4.7915C9.00825 4.7915 10.5416 6.32484 10.5416 8.14567C10.5416 9.9665 9.00825 11.4998 7.18742 11.4998C5.36659 11.4998 3.83325 9.9665 3.83325 8.14567ZM7.18742 13.4165C2.49159 13.4165 0.958252 17.2498 0.958252 17.2498V19.1665H13.4166V17.2498C13.4166 17.2498 11.8833 13.4165 7.18742 13.4165Z" fill="#FF8A6B"/>
</svg>
