<svg width="47" height="48" viewBox="0 0 47 48" fill="none" xmlns="http://www.w3.org/2000/svg">
<g clip-path="url(#clip0_74_232)">
<path d="M34 0H13C5.8203 0 0 5.8203 0 13V35C0 42.1797 5.8203 48 13 48H34C41.1797 48 47 42.1797 47 35V13C47 5.8203 41.1797 0 34 0Z" fill="#F15A2B"/>
<path d="M32.8184 31.9291C32.3682 31.9383 31.926 31.8095 31.5512 31.56C31.2723 31.3777 30.9462 31.2807 30.613 31.2807C30.2797 31.2807 29.9537 31.3777 29.6747 31.56C29.2961 31.8011 28.8566 31.9291 28.4077 31.9291C27.9589 31.9291 27.5194 31.8011 27.1408 31.56C26.8618 31.3775 26.5357 31.2804 26.2023 31.2804C25.869 31.2804 25.5429 31.3775 25.2639 31.56C24.8853 31.8011 24.4458 31.9291 23.9969 31.9291C23.5481 31.9291 23.1086 31.8011 22.7299 31.56C22.4512 31.3777 22.1253 31.2805 21.7922 31.2805C21.459 31.2805 21.1331 31.3777 20.8544 31.56C20.5111 31.7881 20.1105 31.9149 19.6985 31.9258L19.6758 31.2772C19.9801 31.27 20.2757 31.1737 20.5258 31.0002C20.9044 30.7592 21.3438 30.6312 21.7925 30.6312C22.2412 30.6312 22.6806 30.7592 23.0591 31.0002C23.3381 31.1826 23.6641 31.2797 23.9974 31.2797C24.3307 31.2797 24.6567 31.1826 24.9357 31.0002C25.3143 30.759 25.754 30.6309 26.203 30.6309C26.6519 30.6309 27.0916 30.759 27.4703 31.0002C27.7492 31.1826 28.0753 31.2797 28.4085 31.2797C28.7418 31.2797 29.0679 31.1826 29.3468 31.0002C29.7255 30.7593 30.165 30.6313 30.6138 30.6313C31.0626 30.6313 31.5021 30.7593 31.8808 31.0002C32.1604 31.183 32.4872 31.2804 32.8213 31.2804C33.1554 31.2804 33.4822 31.183 33.7618 31.0002C34.1362 30.7515 34.5776 30.6229 35.027 30.6318V31.2804C34.6924 31.2713 34.3636 31.3691 34.0884 31.5597C33.7127 31.8095 33.2695 31.9384 32.8184 31.9291Z" fill="white"/>
<path d="M15.1783 31.9287C14.7282 31.938 14.2861 31.8092 13.9115 31.5596C13.6364 31.3688 13.3075 31.2709 12.9729 31.28V30.6314C13.4231 30.622 13.8653 30.7508 14.24 31.0004C14.515 31.1912 14.8437 31.2892 15.1783 31.28C15.513 31.2892 15.8419 31.1911 16.1169 31.0001C16.4908 30.7506 16.9323 30.6219 17.3818 30.6314C17.8203 30.6215 18.2516 30.7444 18.6191 30.9839L18.2918 31.5437C18.0234 31.363 17.7052 31.2708 17.3818 31.28C17.0484 31.271 16.721 31.3687 16.4471 31.5589C16.072 31.8092 15.6291 31.9383 15.1783 31.9287Z" fill="white"/>
<path d="M32.8193 29.6582C32.3688 29.6674 31.9263 29.5386 31.5512 29.2891C31.272 29.1067 30.9456 29.0095 30.6121 29.0095C30.2785 29.0095 29.9522 29.1067 29.673 29.2891C29.2944 29.5301 28.855 29.6581 28.4062 29.6581C27.9574 29.6581 27.518 29.5301 27.1394 29.2891C26.8606 29.1068 26.5346 29.0097 26.2014 29.0097C25.8683 29.0097 25.5423 29.1068 25.2635 29.2891C24.8849 29.5302 24.4455 29.6582 23.9967 29.6582C23.5479 29.6582 23.1084 29.5302 22.7299 29.2891C22.451 29.1068 22.1251 29.0097 21.7919 29.0097C21.4588 29.0097 21.1328 29.1068 20.854 29.2891C20.4794 29.5387 20.0372 29.6675 19.5872 29.6582C19.1371 29.6675 18.695 29.5387 18.3204 29.2891C18.0455 29.0984 17.7169 29.0004 17.3824 29.0096C17.0481 29.0005 16.7196 29.0984 16.4448 29.2891C16.0708 29.5384 15.6294 29.6672 15.1799 29.6582C14.7298 29.6675 14.2875 29.5387 13.9128 29.2891C13.6374 29.098 13.308 29 12.9729 29.0096V28.3609C13.423 28.3516 13.8651 28.4804 14.2397 28.73C14.5148 28.9207 14.8437 29.0187 15.1783 29.0096C15.5126 29.0186 15.8412 28.9207 16.1159 28.73C16.49 28.4807 16.9314 28.3519 17.3808 28.3609C17.8312 28.3513 18.2737 28.4802 18.6486 28.73C18.9236 28.9208 19.2523 29.0187 19.5868 29.0096C19.9214 29.0187 20.2501 28.9208 20.5251 28.73C20.9037 28.4889 21.3431 28.3608 21.7919 28.3608C22.2407 28.3608 22.6802 28.4889 23.0587 28.73C23.3376 28.9124 23.6636 29.0095 23.9968 29.0095C24.3301 29.0095 24.6561 28.9124 24.935 28.73C25.3135 28.4889 25.753 28.3608 26.2018 28.3608C26.6506 28.3608 27.09 28.4889 27.4686 28.73C27.7475 28.9124 28.0735 29.0095 28.4067 29.0095C28.7399 29.0095 29.0659 28.9124 29.3448 28.73C29.7237 28.489 30.1635 28.361 30.6126 28.361C31.0617 28.361 31.5014 28.489 31.8804 28.73C32.1597 28.9123 32.4862 29.0094 32.8198 29.0094C33.1534 29.0094 33.4798 28.9123 33.7592 28.73C34.1342 28.4806 34.5766 28.3518 35.027 28.3609V29.0096C34.6917 29.0001 34.3621 29.098 34.0864 29.2891C33.7115 29.5384 33.2694 29.6672 32.8193 29.6582Z" fill="white"/>
<path d="M32.8184 27.3878C32.3683 27.397 31.9261 27.2682 31.5513 27.0187C31.2762 26.828 30.9473 26.7301 30.6127 26.7392C30.3671 26.7307 30.1232 26.7831 29.9028 26.8916L29.6167 26.3078C29.9263 26.1561 30.268 26.0812 30.6127 26.0895C31.0634 26.0804 31.5061 26.2095 31.8811 26.4596C32.1608 26.6424 32.4876 26.7397 32.8217 26.7397C33.1558 26.7397 33.4826 26.6424 33.7622 26.4596C34.1364 26.2107 34.5777 26.0819 35.0271 26.0905V26.7392C34.6925 26.73 34.3637 26.8278 34.0885 27.0184C33.7128 27.2683 33.2696 27.3972 32.8184 27.3878Z" fill="white"/>
<path d="M28.4043 27.3876C27.9548 27.397 27.5133 27.2683 27.1394 27.0188C26.8604 26.8363 26.5343 26.7392 26.201 26.7392C25.8676 26.7392 25.5415 26.8363 25.2625 27.0188C24.8839 27.2599 24.4444 27.3879 23.9955 27.3879C23.5467 27.3879 23.1072 27.2599 22.7286 27.0188C22.4496 26.8364 22.1236 26.7393 21.7903 26.7393C21.457 26.7393 21.131 26.8364 20.852 27.0188C20.4775 27.268 20.0357 27.3967 19.5859 27.3876C19.1358 27.3969 18.6937 27.2681 18.3191 27.0185C18.0439 26.8278 17.7151 26.7298 17.3805 26.7389C17.0471 26.7299 16.7197 26.8277 16.4458 27.0178C16.0711 27.2679 15.6287 27.3969 15.1783 27.3876C14.7282 27.3969 14.2861 27.2681 13.9115 27.0185C13.6364 26.8278 13.3075 26.7298 12.9729 26.7389V26.0903C13.4231 26.0809 13.8653 26.2097 14.24 26.4594C14.515 26.6501 14.8437 26.7481 15.1783 26.7389C15.513 26.7481 15.8419 26.65 16.1169 26.459C16.4908 26.2095 16.9323 26.0808 17.3818 26.0903C17.8318 26.081 18.2739 26.2098 18.6486 26.4594C18.9236 26.6501 19.2523 26.7481 19.5868 26.7389C19.9215 26.748 20.2503 26.6501 20.5254 26.4594C20.9041 26.2183 21.3436 26.0903 21.7924 26.0903C22.2413 26.0903 22.6808 26.2183 23.0594 26.4594C23.3383 26.6417 23.6644 26.7388 23.9977 26.7388C24.3309 26.7388 24.657 26.6417 24.9359 26.4594C25.3146 26.2181 25.7543 26.09 26.2032 26.09C26.6522 26.09 27.0919 26.2181 27.4705 26.4594C27.7563 26.6515 28.0951 26.7492 28.4393 26.7386C28.4643 26.7389 28.4893 26.7376 28.5142 26.7347L28.6005 27.3775C28.5354 27.3851 28.4698 27.3885 28.4043 27.3876Z" fill="white"/>
<path d="M32.8193 25.1171C32.3688 25.1263 31.9263 24.9975 31.5512 24.748C31.272 24.5655 30.9456 24.4684 30.6121 24.4684C30.2785 24.4684 29.9522 24.5655 29.673 24.748C29.2944 24.989 28.855 25.117 28.4062 25.117C27.9574 25.117 27.518 24.989 27.1394 24.748C26.8606 24.5656 26.5346 24.4685 26.2014 24.4685C25.8683 24.4685 25.5423 24.5656 25.2635 24.748C24.8849 24.989 24.4455 25.1171 23.9967 25.1171C23.5479 25.1171 23.1084 24.989 22.7299 24.748C22.451 24.5656 22.1251 24.4685 21.7919 24.4685C21.4588 24.4685 21.1328 24.5656 20.854 24.748C20.4794 24.9976 20.0372 25.1264 19.5872 25.1171C19.1371 25.1264 18.695 24.9976 18.3204 24.748C18.0455 24.5572 17.7169 24.4593 17.3824 24.4684C17.0481 24.4593 16.7196 24.5573 16.4448 24.748C16.0708 24.9973 15.6294 25.1261 15.1799 25.1171C14.7298 25.1264 14.2875 24.9976 13.9128 24.748C13.6374 24.5569 13.308 24.4589 12.9729 24.4684V23.8198C13.423 23.8105 13.8651 23.9393 14.2397 24.1889C14.5148 24.3796 14.8437 24.4775 15.1783 24.4684C15.5126 24.4775 15.8412 24.3796 16.1159 24.1889C16.49 23.9395 16.9314 23.8107 17.3808 23.8198C17.8312 23.8102 18.2737 23.939 18.6486 24.1889C18.9236 24.3796 19.2523 24.4776 19.5868 24.4684C19.9214 24.4776 20.2501 24.3796 20.5251 24.1889C20.9037 23.9478 21.3431 23.8197 21.7919 23.8197C22.2407 23.8197 22.6802 23.9478 23.0587 24.1889C23.3376 24.3712 23.6636 24.4684 23.9968 24.4684C24.3301 24.4684 24.6561 24.3712 24.935 24.1889C25.3135 23.9478 25.753 23.8197 26.2018 23.8197C26.6506 23.8197 27.09 23.9478 27.4686 24.1889C27.7475 24.3712 28.0735 24.4684 28.4067 24.4684C28.7399 24.4684 29.0659 24.3712 29.3448 24.1889C29.7237 23.9479 30.1635 23.8199 30.6126 23.8199C31.0617 23.8199 31.5014 23.9479 31.8804 24.1889C32.1597 24.3712 32.4862 24.4683 32.8198 24.4683C33.1534 24.4683 33.4798 24.3712 33.7592 24.1889C34.1342 23.9394 34.5766 23.8106 35.027 23.8198V24.4684C34.6917 24.4589 34.3621 24.5569 34.0864 24.748C33.7115 24.9973 33.2694 25.1261 32.8193 25.1171Z" fill="white"/>
<path d="M28.1977 24.8418L27.5857 24.6271C27.7433 24.1743 27.8077 23.6942 27.775 23.2158C27.7423 22.7375 27.6131 22.2706 27.3953 21.8435L25.1675 17.481C25.1455 17.4379 25.1335 17.3904 25.1322 17.3421C25.1309 17.2937 25.1404 17.2457 25.1601 17.2015C25.1798 17.1573 25.2091 17.1181 25.2459 17.0867C25.2827 17.0553 25.3261 17.0326 25.3728 17.0201L29.8125 15.8363C29.9572 15.7985 30.0811 15.7051 30.1572 15.5763C30.2333 15.4476 30.2556 15.2941 30.2191 15.149C30.1826 15.004 30.0903 14.8793 29.9622 14.802C29.8342 14.7247 29.6809 14.701 29.5355 14.7362L24.1621 16.0205C24.0473 16.0477 23.9402 16.1009 23.8492 16.1761C23.7582 16.2513 23.6857 16.3464 23.6374 16.4541C23.5891 16.5618 23.5662 16.6791 23.5705 16.7971C23.5748 16.915 23.6063 17.0304 23.6623 17.1343L25.258 20.0986C25.2985 20.1739 25.3076 20.2622 25.2833 20.3442C25.259 20.4262 25.2033 20.4953 25.1283 20.5364L23.0688 21.6716L22.7559 21.1033L24.5338 20.1232L23.0919 17.4417C22.9887 17.2503 22.931 17.0377 22.9231 16.8204C22.9152 16.6031 22.9574 16.3869 23.0465 16.1885C23.1355 15.9901 23.269 15.8149 23.4366 15.6763C23.6041 15.5377 23.8014 15.4396 24.0129 15.3894L29.3838 14.1054C29.6964 14.0264 30.0277 14.0748 30.3046 14.2401C30.5816 14.4053 30.7816 14.6738 30.8606 14.9864C30.9396 15.2991 30.8911 15.6303 30.7259 15.9073C30.5607 16.1843 30.2922 16.3842 29.9795 16.4632L25.9274 17.5432L27.9733 21.548C28.2309 22.0535 28.3836 22.6059 28.4221 23.172C28.4607 23.738 28.3844 24.306 28.1977 24.8418Z" fill="white"/>
<path d="M21.6222 21.7334L17.6809 23.9051L17.9938 24.4729L21.9351 22.3012L21.6222 21.7334Z" fill="white"/>
<path d="M31.1351 22.6852C30.654 22.6852 30.1837 22.5425 29.7837 22.2752C29.3837 22.008 29.0719 21.6281 28.8878 21.1836C28.7037 20.7391 28.6555 20.25 28.7494 19.7782C28.8432 19.3064 29.0749 18.8729 29.4151 18.5328C29.7553 18.1926 30.1887 17.9609 30.6605 17.8671C31.1324 17.7732 31.6214 17.8214 32.0659 18.0055C32.5104 18.1896 32.8903 18.5013 33.1576 18.9014C33.4248 19.3014 33.5675 19.7717 33.5675 20.2527C33.5668 20.8977 33.3103 21.516 32.8543 21.972C32.3983 22.428 31.78 22.6845 31.1351 22.6852ZM31.1351 18.469C30.7823 18.469 30.4374 18.5736 30.1441 18.7696C29.8507 18.9656 29.6221 19.2442 29.4871 19.5701C29.3521 19.8961 29.3167 20.2547 29.3856 20.6007C29.4544 20.9468 29.6243 21.2646 29.8737 21.5141C30.1232 21.7635 30.441 21.9334 30.7871 22.0023C31.1331 22.0711 31.4917 22.0358 31.8177 21.9007C32.1436 21.7657 32.4222 21.5371 32.6182 21.2438C32.8142 20.9504 32.9188 20.6055 32.9188 20.2527C32.9182 19.7798 32.7301 19.3265 32.3957 18.9921C32.0613 18.6577 31.608 18.4696 31.1351 18.469Z" fill="white"/>
</g>
<defs>
<clipPath id="clip0_74_232">
<rect width="47" height="48" fill="white"/>
</clipPath>
</defs>
</svg>
