<svg width="20" height="20" viewBox="0 0 20 20" fill="none" xmlns="http://www.w3.org/2000/svg">
<g clip-path="url(#clip0_91_4298)">
<path d="M10.3141 19.1838C8.52891 19.1838 6.78383 18.6545 5.29951 17.6627C3.81519 16.6709 2.65831 15.2612 1.97515 13.6119C1.292 11.9627 1.11325 10.1478 1.46152 8.39695C1.80979 6.64608 2.66943 5.0378 3.93174 3.77549C5.19405 2.51318 6.80233 1.65354 8.5532 1.30527C10.3041 0.957002 12.1189 1.13575 13.7682 1.8189C15.4175 2.50206 16.8271 3.65894 17.8189 5.14326C18.8107 6.62758 19.3401 8.37266 19.3401 10.1578C19.3401 12.5517 18.3891 14.8475 16.6964 16.5402C15.0037 18.2329 12.7079 19.1838 10.3141 19.1838ZM10.3141 2.33531C8.76693 2.33531 7.25453 2.79409 5.96812 3.65364C4.68171 4.51319 3.67908 5.7349 3.08701 7.16428C2.49494 8.59366 2.34003 10.1665 2.64186 11.6839C2.9437 13.2014 3.68872 14.5952 4.78272 15.6892C5.87672 16.7832 7.27056 17.5282 8.78798 17.8301C10.3054 18.1319 11.8783 17.977 13.3076 17.3849C14.737 16.7928 15.9587 15.7902 16.8183 14.5038C17.6778 13.2174 18.1366 11.705 18.1366 10.1578C18.1366 8.08317 17.3125 6.09348 15.8454 4.62647C14.3784 3.15946 12.3887 2.33531 10.3141 2.33531Z" fill="#FF8A6B"/>
<path d="M12.8667 13.5615L9.88814 10.5829C9.83237 10.5267 9.78824 10.46 9.7583 10.3867C9.72835 10.3134 9.71318 10.2349 9.71363 10.1557V5.3418H10.9171V9.90895L13.7212 12.707L12.8667 13.5615Z" fill="#FF8A6B"/>
</g>
<defs>
<clipPath id="clip0_91_4298">
<rect width="19.2555" height="19.2555" fill="white" transform="translate(0.685303 0.53418)"/>
</clipPath>
</defs>
</svg>
