<svg width="18" height="18" viewBox="0 0 18 18" fill="none" xmlns="http://www.w3.org/2000/svg">
<g clip-path="url(#clip0_73_210)">
<path d="M17.0683 1.76057L10.1933 16.7605C10.1358 16.8862 10.0383 16.9892 9.91594 17.0535C9.79363 17.1179 9.65345 17.1398 9.51732 17.116C9.3812 17.0922 9.25681 17.0239 9.16361 16.9219C9.0704 16.8199 9.01364 16.6898 9.0022 16.5521L8.42095 9.5792L1.44801 8.99795C1.3103 8.98651 1.18025 8.92975 1.07822 8.83654C0.976195 8.74334 0.907932 8.61895 0.884112 8.48282C0.860291 8.3467 0.882257 8.20652 0.946573 8.08421C1.01089 7.9619 1.11393 7.86435 1.23958 7.80682L16.2396 0.931824C16.3555 0.878682 16.485 0.862292 16.6105 0.884858C16.7361 0.907423 16.8517 0.967862 16.9419 1.05805C17.0321 1.14825 17.0925 1.26389 17.1151 1.38943C17.1377 1.51498 17.1215 1.64461 17.0683 1.76057Z" fill="#080809"/>
</g>
<defs>
<clipPath id="clip0_73_210">
<rect width="18" height="18" fill="white"/>
</clipPath>
</defs>
</svg>
