<svg width="43" height="43" viewBox="0 0 43 43" fill="none" xmlns="http://www.w3.org/2000/svg">
<path d="M38.52 29.3327C36.942 26.8487 35.0953 24.5459 33.0133 22.4661C32.9755 22.4188 32.9548 22.36 32.9548 22.2994C32.9548 22.2388 32.9755 22.18 33.0133 22.1327C34.8049 19.6874 36.3882 17.0961 37.7467 14.3861C37.9432 13.9983 38.0366 13.5664 38.0179 13.1321C37.9992 12.6978 37.8691 12.2755 37.64 11.9061C37.4311 11.5305 37.1256 11.2176 36.7553 10.9996C36.3849 10.7816 35.9631 10.6665 35.5333 10.6661H31.5333C31.0257 10.6759 30.5315 10.8304 30.1087 11.1115C29.686 11.3926 29.3522 11.7885 29.1467 12.2527C27.9848 14.8223 26.5925 17.2812 24.9867 19.5994V13.0661C24.9884 12.7504 24.9276 12.4375 24.8076 12.1455C24.6876 11.8535 24.5109 11.5883 24.2877 11.3651C24.0645 11.1418 23.7992 10.9651 23.5072 10.8451C23.2152 10.7252 22.9023 10.6643 22.5867 10.6661H16.7467C16.4067 10.6713 16.0746 10.7694 15.7863 10.9496C15.498 11.1298 15.2643 11.3854 15.1106 11.6887C14.9569 11.992 14.889 12.3315 14.9141 12.6706C14.9393 13.0096 15.0566 13.3354 15.2533 13.6127L15.7867 14.3594C16.0727 14.7702 16.2263 15.2588 16.2267 15.7594V20.8794C14.4666 18.2756 13.0672 15.4454 12.0667 12.4661C11.8862 11.941 11.5465 11.4854 11.0947 11.1628C10.643 10.8401 10.1018 10.6664 9.54667 10.6661H6.28C5.93291 10.6702 5.59124 10.7526 5.28044 10.9072C4.96964 11.0618 4.69773 11.2845 4.48498 11.5588C4.27222 11.833 4.12412 12.1518 4.05169 12.4913C3.97926 12.8307 3.98438 13.1822 4.06667 13.5194C5.86667 21.1594 9.64 27.4927 14.4267 30.8527C14.7135 31.0565 15.0693 31.1386 15.4165 31.0812C15.7637 31.0237 16.0741 30.8314 16.28 30.5461C16.383 30.4036 16.4568 30.2421 16.4971 30.071C16.5374 29.8998 16.5435 29.7224 16.515 29.5489C16.4865 29.3754 16.424 29.2093 16.331 29.0601C16.2381 28.9108 16.1165 28.7814 15.9733 28.6794C11.7867 25.7461 8.45334 20.1594 6.76 13.3327H9.56C10.787 17.0606 12.6352 20.5542 15.0267 23.6661C15.3031 24.0192 15.6837 24.2763 16.1146 24.4008C16.5454 24.5252 17.0045 24.5107 17.4267 24.3594C17.8598 24.2084 18.2345 23.925 18.4977 23.5493C18.7609 23.1737 18.8993 22.7247 18.8933 22.2661V15.7594C18.8962 14.9118 18.6852 14.0772 18.28 13.3327H22.28V20.5727C22.2752 21.0908 22.4411 21.596 22.7519 22.0105C23.0627 22.4249 23.5013 22.7256 24 22.8661C24.4838 23.0271 25.0072 23.0242 25.4892 22.8579C25.9712 22.6916 26.3851 22.3711 26.6667 21.9461C28.5605 19.2442 30.1776 16.3585 31.4933 13.3327H35.2267C33.9558 15.8315 32.489 18.2256 30.84 20.4927C30.4242 21.049 30.2223 21.7362 30.2713 22.429C30.3203 23.1218 30.6168 23.7738 31.1067 24.2661C33.0514 26.2257 34.8017 28.369 36.3333 30.6661H31.8667C30.4887 28.3851 28.6384 26.4256 26.44 24.9194C26.1102 24.6777 25.7192 24.5334 25.3115 24.5027C24.9037 24.4721 24.4956 24.5564 24.1333 24.7461C23.7609 24.9367 23.4488 25.2272 23.2322 25.5852C23.0155 25.9431 22.9028 26.3543 22.9067 26.7727V29.9461C22.914 30.1313 22.8481 30.312 22.7234 30.4492C22.5987 30.5864 22.4251 30.669 22.24 30.6794H21.0933C20.7397 30.6794 20.4006 30.8199 20.1505 31.0699C19.9005 31.32 19.76 31.6591 19.76 32.0127C19.76 32.3663 19.9005 32.7055 20.1505 32.9555C20.4006 33.2056 20.7397 33.3461 21.0933 33.3461H22.24C22.6824 33.3426 23.1197 33.2518 23.5269 33.0789C23.9341 32.9059 24.3032 32.6543 24.6129 32.3384C24.9226 32.0225 25.1668 31.6485 25.3317 31.238C25.4965 30.8275 25.5786 30.3884 25.5733 29.9461V27.5861C27.1772 28.7925 28.5351 30.2952 29.5733 32.0127C29.8026 32.41 30.1304 32.7414 30.5251 32.975C30.9198 33.2085 31.3681 33.3364 31.8267 33.3461H36.3333C36.7942 33.3472 37.2468 33.2239 37.6434 32.9893C38.04 32.7546 38.3659 32.4172 38.5867 32.0127C38.8132 31.5999 38.9263 31.1345 38.9146 30.6637C38.9029 30.193 38.7667 29.7338 38.52 29.3327Z" fill="white"/>
</svg>
