<svg width="26" height="26" viewBox="0 0 26 26" fill="none" xmlns="http://www.w3.org/2000/svg">
<g clip-path="url(#clip0_89_3062)">
<path d="M25.37 12.5037C25.365 14.6461 24.8999 16.5362 23.9598 18.2927C23.0741 19.9503 21.852 21.3307 20.3132 22.4193C18.9624 23.3742 17.483 24.0273 15.865 24.3638C14.0739 24.7349 12.2827 24.6953 10.5064 24.2698C9.56633 24.0422 8.66581 23.6958 7.81971 23.2357C7.67622 23.1565 7.55253 23.1516 7.39914 23.201C5.53378 23.7997 3.66841 24.3935 1.80305 24.9872C1.59029 25.0565 1.38247 25.1208 1.16971 25.2C1.02127 25.2544 1.01138 25.2 1.05096 25.0763C1.26867 24.438 1.48143 23.7997 1.69914 23.1565C2.16424 21.7662 2.62935 20.3758 3.10435 18.9904C3.16867 18.8073 3.07466 18.6885 3.00044 18.5599C2.41659 17.5456 2.00096 16.4669 1.74367 15.3289C1.18456 12.8747 1.38247 10.4701 2.32258 8.13959C2.86685 6.79375 3.64367 5.58646 4.6382 4.51771C5.90487 3.15209 7.40409 2.14766 9.13586 1.47474C10.7538 0.846359 12.4262 0.603911 14.1481 0.707817C16.5083 0.851307 18.6557 1.63308 20.5408 3.05808C22.9801 4.8987 24.514 7.31823 25.1275 10.3216C25.2908 11.0885 25.3502 11.8654 25.37 12.5037ZM13.3218 2.71172C12.8616 2.69193 12.3223 2.74636 11.783 2.82553C11.5702 2.85521 11.3624 2.89974 11.1546 2.95417C7.93846 3.77058 5.62779 5.69037 4.26711 8.71355C3.48039 10.4602 3.26763 12.3057 3.5645 14.1958C3.79706 15.6901 4.35122 17.0656 5.21711 18.3076C5.31112 18.4461 5.32596 18.5648 5.27154 18.7182C4.90539 19.7919 4.54914 20.8706 4.18794 21.9492C4.16815 22.0086 4.10878 22.0779 4.1632 22.1323C4.21763 22.1917 4.2869 22.1273 4.34628 22.1076C5.42987 21.7612 6.51346 21.4198 7.58716 21.0586C7.83456 20.9745 8.01268 21.0141 8.22544 21.1427C10.6549 22.6023 13.2525 22.9883 15.9887 22.2609C18.0669 21.7117 19.7788 20.5787 21.1346 18.9063C22.4458 17.2883 23.1781 15.4378 23.3265 13.3695C23.4403 11.7813 23.1929 10.2375 22.5596 8.76303C21.7629 6.90756 20.521 5.42318 18.8437 4.3198C17.201 3.24115 15.3851 2.68698 13.3218 2.71172Z" fill="#282828"/>
<path d="M7.41388 9.77895C7.43367 8.66567 7.86909 7.7503 8.72013 7.0378C8.96258 6.83494 9.2545 6.75083 9.57612 6.80525C9.71466 6.82504 9.85815 6.84484 9.99174 6.82999C10.3282 6.80525 10.5212 6.99327 10.6251 7.27036C10.9417 8.10161 11.2485 8.9378 11.5602 9.76905C11.6196 9.92739 11.6048 10.0709 11.5305 10.2193C11.3376 10.6201 11.0308 10.9318 10.724 11.2435C10.4568 11.5157 10.442 11.6047 10.6251 11.9362C11.5108 13.5394 12.7329 14.7862 14.4251 15.5433C14.5092 15.5779 14.5834 15.6373 14.6626 15.6719C14.8753 15.7758 15.0683 15.7659 15.2464 15.5829C15.5928 15.2316 15.9144 14.8555 16.2261 14.4696C16.4686 14.1678 16.5824 14.1232 16.9238 14.2766C17.755 14.6625 18.5467 15.1128 19.3532 15.5482C19.6204 15.6917 19.6501 15.8896 19.6105 16.2508C19.4472 17.7204 18.324 18.3883 17.0425 18.6011C16.6121 18.6704 16.2063 18.6308 15.8006 18.5021C14.6131 18.1261 13.4454 17.6907 12.3964 17.0079C11.4167 16.3696 10.5756 15.573 9.83836 14.6675C9.12091 13.7818 8.48263 12.8467 7.9532 11.8323C7.65633 11.2534 7.41388 10.3529 7.41388 9.77895Z" fill="#282828"/>
</g>
<defs>
<clipPath id="clip0_89_3062">
<rect width="25.3333" height="25.3333" fill="white" transform="translate(0.333374)"/>
</clipPath>
</defs>
</svg>
